<svg width="17" height="17" viewBox="0 0 17 17" fill="none" xmlns="http://www.w3.org/2000/svg">
<path d="M14.7616 3.26543C14.3998 2.90347 13.9703 2.61634 13.4975 2.42045C13.0247 2.22455 12.5179 2.12372 12.0062 2.12372C11.4944 2.12372 10.9877 2.22455 10.5149 2.42045C10.0421 2.61634 9.61255 2.90347 9.25076 3.26543L8.49993 4.01626L7.74909 3.26543C7.01831 2.53465 6.02716 2.1241 4.99367 2.1241C3.96019 2.1241 2.96904 2.53465 2.23826 3.26543C1.50747 3.99621 1.09692 4.98736 1.09692 6.02084C1.09692 7.05433 1.50747 8.04548 2.23826 8.77626L2.98909 9.52709L8.49993 15.0379L14.0108 9.52709L14.7616 8.77626C15.1235 8.41448 15.4107 7.98492 15.6066 7.51214C15.8025 7.03935 15.9033 6.53261 15.9033 6.02084C15.9033 5.50908 15.8025 5.00234 15.6066 4.52955C15.4107 4.05677 15.1235 3.62721 14.7616 3.26543Z" fill="#FF4343" stroke="#FF4343" stroke-width="1.2" stroke-linecap="round" stroke-linejoin="round"/>
</svg>
