<svg width="14" height="14" viewBox="0 0 14 14" fill="none" xmlns="http://www.w3.org/2000/svg">
<g clip-path="url(#clip0_47_2968)">
<path d="M12.25 5.83331C12.25 9.91665 7 13.4166 7 13.4166C7 13.4166 1.75 9.91665 1.75 5.83331C1.75 4.44093 2.30312 3.10557 3.28769 2.121C4.27226 1.13644 5.60761 0.583313 7 0.583313C8.39239 0.583313 9.72774 1.13644 10.7123 2.121C11.6969 3.10557 12.25 4.44093 12.25 5.83331Z" stroke="white" stroke-width="1.2" stroke-linecap="round" stroke-linejoin="round"/>
<path d="M7 7.58331C7.9665 7.58331 8.75 6.79981 8.75 5.83331C8.75 4.86681 7.9665 4.08331 7 4.08331C6.0335 4.08331 5.25 4.86681 5.25 5.83331C5.25 6.79981 6.0335 7.58331 7 7.58331Z" stroke="white" stroke-width="1.2" stroke-linecap="round" stroke-linejoin="round"/>
</g>
<defs>
<clipPath id="clip0_47_2968">
<rect width="14" height="14" fill="white"/>
</clipPath>
</defs>
</svg>
