<?xml version="1.0" encoding="iso-8859-1"?>
<!-- Generator: Adobe Illustrator 19.0.0, SVG Export Plug-In . SVG Version: 6.00 Build 0)  -->
<svg version="1.1" id="Capa_1" xmlns="http://www.w3.org/2000/svg" xmlns:xlink="http://www.w3.org/1999/xlink" x="0px" y="0px"
	 viewBox="0 0 407.967 407.967" style="enable-background:new 0 0 407.967 407.967;" xml:space="preserve">
<g>
	<g>
		<g>
			<path d="M114.24,228.073l60.373-60.373L24.96,18.047c-33.28,33.28-33.28,87.36,0,120.64L114.24,228.073z"/>
			<path d="M258.987,189.353c32.533,15.253,78.507,4.48,112.427-29.44c40.853-40.853,48.64-99.2,17.387-130.453
				C357.44-1.793,298.987,5.993,258.24,46.847c-33.92,33.92-44.587,79.893-29.44,112.427
				c-47.467,47.36-208.32,208.213-208.32,208.213l30.187,30.187L197.44,250.9l146.773,146.773l30.187-30.187L227.627,220.713
				L258.987,189.353z"/>
		</g>
	</g>
</g>
<g>
</g>
<g>
</g>
<g>
</g>
<g>
</g>
<g>
</g>
<g>
</g>
<g>
</g>
<g>
</g>
<g>
</g>
<g>
</g>
<g>
</g>
<g>
</g>
<g>
</g>
<g>
</g>
<g>
</g>
</svg>
