<svg id="Layer_1" height="512" viewBox="0 0 128 128" width="512" xmlns="http://www.w3.org/2000/svg"><g fill="rgb(0,0,0)"><path d="m107.683 55.056c-3.133-3.132-7.298-4.856-11.727-4.856h-1.2v-16.484c0-16.838-13.698-30.536-30.535-30.536h-1.129c-16.837 0-30.536 13.698-30.536 30.536v16.483h-1.2c-4.429 0-8.594 1.725-11.727 4.857-3.132 3.133-4.857 7.298-4.857 11.728v41.452c0 4.43 1.725 8.595 4.857 11.726 3.132 3.133 7.297 4.858 11.727 4.858h64.6c4.43 0 8.595-1.725 11.728-4.858 3.132-3.132 4.857-7.297 4.857-11.726v-41.452c0-4.429-1.725-8.594-4.858-11.728zm-67.127-21.34c0-12.426 10.109-22.536 22.536-22.536h1.129c12.426 0 22.535 10.11 22.535 22.536v16.483h-46.2zm63.985 74.52c0 2.259-.917 4.471-2.514 6.069-1.622 1.622-3.778 2.515-6.071 2.515h-64.6c-2.293 0-4.448-.893-6.071-2.516-1.621-1.62-2.514-3.775-2.514-6.068v-41.452c0-2.293.893-4.45 2.514-6.071 1.622-1.621 3.777-2.514 6.07-2.514h64.6c2.293 0 4.449.893 6.07 2.513 1.622 1.623 2.515 3.779 2.515 6.072v41.452z"/><path d="m63.656 76.464c-2.209 0-4 1.791-4 4v14.092c0 2.209 1.791 4 4 4s4-1.791 4-4v-14.092c0-2.209-1.791-4-4-4z"/></g></svg>