<svg width="14" height="14" viewBox="0 0 14 14" fill="none" xmlns="http://www.w3.org/2000/svg">
<g clip-path="url(#clip0_1675_691)">
<path d="M9.33337 1.75H0.583374V9.33333H9.33337V1.75Z" stroke="#F5C102" stroke-width="1.5" stroke-linecap="round" stroke-linejoin="round"/>
<path d="M9.33337 4.66675H11.6667L13.4167 6.41675V9.33342H9.33337V4.66675Z" stroke="#F5C102" stroke-width="1.5" stroke-linecap="round" stroke-linejoin="round"/>
<path d="M3.20833 12.2499C4.01375 12.2499 4.66667 11.597 4.66667 10.7916C4.66667 9.98617 4.01375 9.33325 3.20833 9.33325C2.40292 9.33325 1.75 9.98617 1.75 10.7916C1.75 11.597 2.40292 12.2499 3.20833 12.2499Z" stroke="#F5C102" stroke-width="1.5" stroke-linecap="round" stroke-linejoin="round"/>
<path d="M10.7917 12.2499C11.5971 12.2499 12.25 11.597 12.25 10.7916C12.25 9.98617 11.5971 9.33325 10.7917 9.33325C9.98629 9.33325 9.33337 9.98617 9.33337 10.7916C9.33337 11.597 9.98629 12.2499 10.7917 12.2499Z" stroke="#F5C102" stroke-width="1.5" stroke-linecap="round" stroke-linejoin="round"/>
</g>
<defs>
<clipPath id="clip0_1675_691">
<rect width="14" height="14" fill="white"/>
</clipPath>
</defs>
</svg>
